<svg xmlns="http://www.w3.org/2000/svg" viewBox="0 0 128 128" role="img" aria-label="Croissant">
  <defs>
    <linearGradient id="crust" x1="0" y1="0" x2="0" y2="1">
      <stop offset="0" stop-color="#ffd98a"/>
      <stop offset="0.55" stop-color="#f2a93b"/>
      <stop offset="1" stop-color="#c8701d"/>
    </linearGradient>
    <linearGradient id="crust-dark" x1="0" y1="0" x2="0" y2="1">
      <stop offset="0" stop-color="#f4b456"/>
      <stop offset="1" stop-color="#b35f17"/>
    </linearGradient>
    <radialGradient id="shadow" cx="0.5" cy="0.5" r="0.5">
      <stop offset="0" stop-color="#000" stop-opacity="0.35"/>
      <stop offset="1" stop-color="#000" stop-opacity="0"/>
    </radialGradient>
  </defs>
  <ellipse cx="64" cy="106" rx="54" ry="6" fill="url(#shadow)"/>
  <g stroke="#8a4510" stroke-width="2" stroke-linejoin="round">
    <ellipse cx="20.8" cy="96.3" rx="7" ry="9" transform="rotate(-119.2 20.8 96.3)" fill="url(#crust-dark)"/>
    <ellipse cx="107.2" cy="96.3" rx="7" ry="9" transform="rotate(-240.8 107.2 96.3)" fill="url(#crust-dark)"/>
    <ellipse cx="18.1" cy="83.9" rx="11" ry="13" transform="rotate(-443.9 18.1 83.9)" fill="url(#crust-dark)"/>
    <ellipse cx="109.9" cy="83.9" rx="11" ry="13" transform="rotate(-276.1 109.9 83.9)" fill="url(#crust-dark)"/>
    <ellipse cx="24.2" cy="71.0" rx="14" ry="18" transform="rotate(-408.5 24.2 71.0)" fill="url(#crust)"/>
    <ellipse cx="103.8" cy="71.0" rx="14" ry="18" transform="rotate(-311.5 103.8 71.0)" fill="url(#crust)"/>
    <ellipse cx="41.0" cy="60.0" rx="17" ry="22" transform="rotate(-380.6 41.0 60.0)" fill="url(#crust)"/>
    <ellipse cx="87.0" cy="60.0" rx="17" ry="22" transform="rotate(-339.4 87.0 60.0)" fill="url(#crust)"/>
    <ellipse cx="64.0" cy="56.0" rx="19" ry="25" transform="rotate(-360.0 64.0 56.0)" fill="url(#crust)"/>
  </g>
  <g fill="none" stroke="#fff3d6" stroke-width="2.5" stroke-linecap="round" opacity="0.7">
    <path d="M-7.0 0 Q0 -3 7.0 0" transform="translate(17.4 65.0) rotate(-408.5)"/>
    <path d="M-7.0 0 Q0 -3 7.0 0" transform="translate(110.6 65.0) rotate(-311.5)"/>
    <path d="M-8.5 0 Q0 -3 8.5 0" transform="translate(37.1 49.7) rotate(-380.6)"/>
    <path d="M-8.5 0 Q0 -3 8.5 0" transform="translate(90.9 49.7) rotate(-339.4)"/>
    <path d="M-9.5 0 Q0 -3 9.5 0" transform="translate(64.0 43.5) rotate(-360.0)"/>
  </g>
</svg>
